<?xml version="1.0" standalone="no"?>
<!DOCTYPE svg PUBLIC "-//W3C//DTD SVG 20010904//EN"
 "http://www.w3.org/TR/2001/REC-SVG-20010904/DTD/svg10.dtd">
<svg version="1.0" xmlns="http://www.w3.org/2000/svg"
 width="21px" height="18px" viewBox="0 0 1280.000000 1213.000000"
 preserveAspectRatio="xMidYMid meet">
<metadata>
Created by potrace 1.15, written by Peter Selinger 2001-2017
</metadata>
<g transform="translate(0.000000,1213.000000) scale(0.100000,-0.100000) rotate(-8 50 100)"
fill="#55ACEE" stroke="none">
<path d="M5588 12111 c-70 -23 -131 -57 -223 -126 -146 -108 -290 -258 -580
-605 l-138 -165 -51 3 c-151 9 -579 45 -766 64 -151 16 -280 22 -435 22 -214
0 -222 -1 -310 -28 -164 -52 -193 -56 -385 -60 -201 -4 -196 -3 -430 -85 -63
-23 -134 -41 -156 -41 -36 0 -47 6 -80 43 -53 57 -112 135 -227 302 -219 318
-440 551 -594 627 -60 29 -66 30 -118 20 -110 -22 -229 -96 -285 -177 -42 -61
-72 -146 -120 -333 -86 -346 -138 -663 -164 -1017 -26 -341 -34 -371 -140
-530 -122 -183 -197 -339 -269 -560 -79 -244 -104 -379 -113 -625 -20 -495
123 -968 394 -1299 59 -73 285 -304 327 -336 l27 -20 -118 -90 c-220 -166
-323 -285 -249 -285 74 0 285 111 358 189 23 24 59 61 79 82 l37 37 38 -19
c20 -10 53 -34 73 -53 60 -59 222 -175 288 -208 34 -17 62 -32 62 -34 0 -2
-14 -27 -31 -56 -46 -78 -91 -180 -85 -195 8 -19 51 -16 96 7 22 11 81 55 131
97 l92 77 76 -41 c96 -52 243 -98 503 -157 l27 -6 -19 -33 c-24 -41 -48 -128
-65 -230 -13 -80 -13 -82 8 -99 33 -26 69 -22 101 11 33 35 176 260 176 278 0
16 5 16 30 3 10 -6 96 -26 190 -45 94 -20 191 -45 216 -56 47 -22 90 -66 106
-108 19 -49 27 -194 18 -311 -15 -195 -103 -546 -153 -607 -13 -15 -31 -55
-41 -88 -35 -118 -102 -197 -210 -248 -103 -49 -793 -263 -1276 -397 -394
-108 -501 -156 -624 -275 -127 -124 -176 -242 -176 -426 0 -120 22 -242 49
-273 41 -48 191 -158 239 -176 113 -43 227 -19 450 93 86 43 168 96 269 172
79 61 199 151 265 201 176 134 299 189 519 233 155 31 260 41 425 42 l148 1
28 -31 c45 -50 63 -128 63 -271 l0 -125 -84 -110 c-112 -147 -287 -411 -338
-510 -55 -108 -144 -333 -188 -480 -48 -159 -76 -279 -120 -515 -20 -107 -47
-233 -60 -280 -44 -155 -49 -243 -49 -730 1 -515 3 -532 84 -697 71 -144 171
-233 280 -248 96 -14 265 40 388 124 138 94 236 205 271 308 26 78 27 152 1
285 -39 209 -42 236 -30 373 30 367 75 592 162 810 104 265 303 555 413 606
61 28 109 23 215 -22 390 -166 665 -223 1375 -285 277 -25 355 -28 735 -28
317 0 480 4 640 17 636 52 1203 136 1870 278 496 106 753 170 1561 390 294 80
296 80 332 2 18 -40 22 -72 25 -192 6 -213 -17 -423 -108 -986 -22 -137 -45
-304 -50 -370 -18 -206 -30 -324 -50 -495 -39 -340 -37 -483 11 -658 25 -96
61 -164 115 -222 108 -116 310 -163 430 -102 22 11 69 53 105 93 170 190 205
264 214 449 3 52 10 127 15 165 19 133 31 291 50 630 11 187 25 390 31 450 18
180 5 754 -25 1120 -14 171 -26 321 -26 334 0 24 0 24 21 6 11 -11 51 -82 89
-160 95 -193 172 -389 417 -1060 124 -341 234 -618 289 -727 24 -48 88 -200
143 -338 149 -376 177 -417 332 -494 199 -100 362 -79 423 53 19 41 21 62 19
201 -2 203 -24 312 -109 532 -35 93 -76 211 -90 261 -27 98 -106 337 -279 847
-114 335 -172 466 -345 775 -46 83 -110 204 -141 270 -68 141 -203 540 -319
940 -108 374 -139 468 -198 610 -68 165 -111 298 -177 543 -72 273 -85 342
-85 467 0 80 6 122 25 191 46 161 108 272 385 699 843 1296 982 1588 1179
2470 64 287 74 361 67 515 -9 234 -60 421 -176 655 -315 635 -904 879 -1260
522 -54 -53 -76 -99 -107 -216 -38 -145 -44 -353 -13 -476 28 -114 87 -241
180 -385 143 -222 175 -322 174 -545 -1 -358 -153 -884 -396 -1369 -181 -362
-361 -640 -636 -985 -152 -189 -222 -263 -306 -323 -116 -81 -210 -98 -411
-73 -78 9 -155 13 -179 9 -70 -12 -195 -52 -351 -114 -82 -32 -177 -66 -210
-75 -85 -22 -215 -19 -400 9 -335 52 -424 45 -713 -55 -97 -33 -199 -67 -227
-75 -72 -20 -181 -18 -247 5 -101 35 -197 44 -386 38 -201 -6 -341 -27 -567
-87 -294 -76 -415 -89 -615 -66 -171 21 -476 21 -680 1 -85 -8 -207 -15 -272
-15 l-116 0 -22 66 c-11 36 -28 77 -37 90 -15 24 -15 24 39 48 30 13 122 45
204 71 82 26 182 65 223 86 l73 39 119 -115 c158 -153 224 -194 267 -167 9 6
6 23 -14 72 -41 101 -99 212 -138 263 -36 47 -36 47 -11 47 34 0 107 25 195
68 54 26 96 57 148 109 41 40 78 73 82 73 19 0 163 -125 185 -160 52 -82 230
-210 341 -245 156 -49 55 87 -256 344 -171 141 -159 127 -116 145 48 20 355
325 428 427 188 258 328 571 397 892 74 342 74 712 -1 995 -65 249 -311 680
-519 908 -105 116 -125 182 -159 530 -52 518 -140 901 -257 1110 -85 153 -226
215 -375 165z"/>
</g>
</svg>
