<svg id="svg" version="1.1" xmlns="http://www.w3.org/2000/svg" xmlns:xlink="http://www.w3.org/1999/xlink" width="18px" height="17px" viewBox="0, 0, 400,356.6666666666667"><g id="svgg"><path id="path0" d="M226.905 20.199 C 218.917 23.764,219.857 34.006,228.571 38.345 C 236.792 42.438,247.682 52.130,253.169 60.238 C 274.867 92.302,266.691 133.970,234.355 156.117 C 229.333 159.557,228.095 161.426,228.095 165.567 C 228.095 171.001,230.562 173.553,240.553 178.457 C 260.203 188.102,280.691 204.885,292.381 220.913 C 294.345 223.606,296.604 226.696,297.401 227.780 C 303.313 235.823,316.383 231.025,314.268 221.588 C 311.286 208.283,284.105 181.246,259.048 166.660 C 257.083 165.516,255.388 164.516,255.281 164.436 C 255.173 164.357,257.209 162.094,259.804 159.408 C 298.362 119.507,290.732 55.682,243.745 25.071 C 235.598 19.763,230.915 18.409,226.905 20.199 M135.749 25.994 C 61.976 36.732,40.255 132.469,102.268 173.570 C 104.170 174.830,105.662 175.925,105.584 176.003 C 105.506 176.081,103.528 176.821,101.189 177.646 C 52.541 194.817,17.649 236.832,10.182 287.235 C 8.756 296.860,11.852 301.561,19.581 301.501 C 25.386 301.456,27.693 298.490,29.334 288.956 C 39.440 230.265,88.188 189.048,147.495 189.048 C 195.948 189.048,237.795 216.716,257.754 261.949 C 260.041 267.133,264.841 268.422,270.759 265.442 C 277.445 262.076,277.105 255.846,269.486 242.143 C 252.583 211.739,225.947 189.015,194.111 177.838 C 190.019 176.402,189.088 175.914,189.663 175.511 C 190.063 175.230,192.381 173.607,194.814 171.905 C 225.640 150.336,237.351 109.103,222.471 74.524 C 207.951 40.779,172.081 20.706,135.749 25.994 M155.968 44.794 C 203.381 51.389,225.685 106.147,196.396 144.048 C 166.335 182.947,103.946 172.272,88.329 125.558 C 73.851 82.249,110.514 38.472,155.968 44.794 M324.369 222.055 L 323.333 223.157 323.333 248.007 L 323.333 272.857 299.079 272.857 C 269.049 272.857,270.992 272.341,270.968 280.318 C 270.941 288.774,268.513 288.095,298.786 288.095 L 323.333 288.095 323.333 313.012 L 323.333 337.929 324.435 338.965 C 326.152 340.577,335.529 340.528,337.060 338.898 L 338.095 337.796 338.095 312.945 L 338.095 288.095 362.650 288.095 C 392.525 288.095,390.436 288.657,390.461 280.622 C 390.475 276.166,390.382 275.658,389.327 274.431 L 388.178 273.095 363.137 272.964 L 338.095 272.833 338.095 247.928 L 338.095 223.023 336.993 221.988 C 335.277 220.375,325.900 220.425,324.369 222.055 " stroke="none" fill="#667580" fill-rule="evenodd"></path></g></svg>